<svg xmlns="http://www.w3.org/2000/svg" xmlns:xlink="http://www.w3.org/1999/xlink" version="1.1" x="0px" y="0px" viewBox="0 0 64 80" style="enable-background:new 0 0 64 64;" xml:space="preserve"><path d="M17.2,61.6c0.2,0.3,0.5,0.4,0.8,0.4c0.2,0,0.4-0.1,0.6-0.2L32,51.3l13.4,10.5c0.2,0.1,0.4,0.2,0.6,0.2  c0.3,0,0.6-0.1,0.8-0.4c0.3-0.4,0.3-1.1-0.2-1.4L34.9,51H38v-2H26v2h3.1l-11.7,9.2C16.9,60.6,16.9,61.2,17.2,61.6z"/><path d="M12,47h43h6c0.6,0,1-0.4,1-1s-0.4-1-1-1h-5V9h5c0.6,0,1-0.4,1-1s-0.4-1-1-1h-6H33V3c0-0.6-0.4-1-1-1s-1,0.4-1,1v4H12h-2H3  C2.4,7,2,7.4,2,8s0.4,1,1,1h6v36H3c-0.6,0-1,0.4-1,1s0.4,1,1,1h7H12z M11,9h1h42v36H12h-1V9z"/><path d="M23.5,32C29.3,32,34,27.3,34,21.5S29.3,11,23.5,11S13,15.7,13,21.5S17.7,32,23.5,32z M24,13c3.9,0.2,7.2,3.2,7.9,7H24V13z   M32,22c-0.3,4.5-4,8-8.5,8c-2,0-3.8-0.7-5.3-1.9l5.3-6.1H32z M22,13.1v7.5l-5.2,6.1c-1.1-1.4-1.8-3.2-1.8-5.2  C15,17.3,18,13.9,22,13.1z"/><path d="M39,32h4c0.6,0,1-0.4,1-1V17c0-0.6-0.4-1-1-1h-4c-0.6,0-1,0.4-1,1v14C38,31.6,38.4,32,39,32z M40,18h2v12h-2V18z"/><path d="M47,32h4c0.6,0,1-0.4,1-1V13c0-0.6-0.4-1-1-1h-4c-0.6,0-1,0.4-1,1v18C46,31.6,46.4,32,47,32z M48,14h2v16h-2V14z"/><rect x="24" y="37" width="19" height="2"/><rect x="26" y="41" width="7" height="2"/><rect x="38" y="41" width="3" height="2"/><text x="0" y="79" fill="#000000" font-size="5px" font-weight="bold" font-family="'Helvetica Neue', Helvetica, Arial-Unicode, Arial, Sans-serif">by Phatarawalan Kuapornkiettikul</text><text x="0" y="84" fill="#000000" font-size="5px" font-weight="bold" font-family="'Helvetica Neue', Helvetica, Arial-Unicode, Arial, Sans-serif">from the Noun Project</text></svg>