<svg xmlns="http://www.w3.org/2000/svg" viewBox="0 0 1080 1350" x="0px" y="0px"><path d="M933.25,480.68L623.5,165.72c-19.52-19.85-45.6-30.99-73.44-31.36-27.88-.37-54.21,10.05-74.26,29.37L147.53,479.92c-11.81,11.38-15.48,28.56-9.35,43.77,6.13,15.21,20.7,25.04,37.1,25.04h43.86v291.93c0,57.9,47.1,105,105,105h430.34c57.9,0,105-47.1,105-105v-291.93h45.26c16.16,0,30.64-9.63,36.89-24.54,6.25-14.91,2.96-31.99-8.37-43.51Zm-487.3,414.98v-214.44h188.11v214.44h-188.11Zm363.52-396.93v341.93c0,30.33-24.67,55-55,55h-70.41v-264.44H395.95v264.44h-71.82c-30.33,0-55-24.67-55-55V498.73h-69.06L510.48,199.73c21.62-20.82,56.32-20.35,77.37,1.05l293.03,297.95h-71.4Zm88.13,17.01h0Z"/><text x="0" y="1095" fill="#000000" font-size="5px" font-weight="bold" font-family="'Helvetica Neue', Helvetica, Arial-Unicode, Arial, Sans-serif">Created by HyunWoo</text><text x="0" y="1100" fill="#000000" font-size="5px" font-weight="bold" font-family="'Helvetica Neue', Helvetica, Arial-Unicode, Arial, Sans-serif">from the Noun Project</text></svg>