<svg xmlns="http://www.w3.org/2000/svg" data-name="Layer 1" viewBox="0 0 95 118.75" x="0px" y="0px"><defs><style>.cls-1{fill-rule:evenodd;}</style></defs><title>a</title><path class="cls-1" d="M55.351,35.522h6.938V62.4H55.351V35.522ZM64.4,28.208h6.988V62.4H64.4V28.208ZM53.243,62.4h-6.93V43.341h6.93V62.4Zm-9.038,0H38.18l-.174-11.11h6.2V62.4ZM53.243,35.35v5.882H46.28a2.011,2.011,0,0,0-2.075,1.937v6.008H37.973a2.158,2.158,0,0,0-1.535.627,1.839,1.839,0,0,0-.54,1.326l.183,12.1a1.32,1.32,0,0,0,1.328,1.272H72.447A1.056,1.056,0,0,0,73.5,63.45V28.036A2.018,2.018,0,0,0,71.418,26.1H64.356a2.009,2.009,0,0,0-2.067,1.937v5.377H55.318a2.011,2.011,0,0,0-2.075,1.937Zm-12.8,2.041a1.188,1.188,0,1,1-1.187,1.188,1.188,1.188,0,0,1,1.187-1.188Zm9.619-6.46a1.189,1.189,0,1,1-1.187,1.188,1.187,1.187,0,0,1,1.187-1.188Zm8.68-5.833a1.189,1.189,0,1,1-1.186,1.189A1.188,1.188,0,0,1,58.745,25.1ZM32,45.549a1.189,1.189,0,1,1,1.186-1.189A1.188,1.188,0,0,1,32,45.549Zm5.269-6.1-3.344,2.245A3.26,3.26,0,0,0,32,41.063,3.295,3.295,0,1,0,35.151,43.4l3.295-2.211a3.266,3.266,0,0,0,2,.684,3.3,3.3,0,0,0,3.179-4.163l4.44-2.979a3.255,3.255,0,0,0,2,.682,3.3,3.3,0,0,0,3.178-4.163l3.5-2.352a3.3,3.3,0,1,0-1.178-1.751l-3.5,2.354a3.28,3.28,0,0,0-5.178,3.479l-4.44,2.98a3.29,3.29,0,0,0-5.295,2.615,3.337,3.337,0,0,0,.116.865ZM72.688,79.125a1.056,1.056,0,0,1-1.055,1.055H51.426a1.055,1.055,0,0,1,0-2.11H71.633a1.056,1.056,0,0,1,1.055,1.055Zm0-3.742a1.054,1.054,0,0,1-1.055,1.054H51.426a1.055,1.055,0,0,1,0-2.109H71.633a1.056,1.056,0,0,1,1.055,1.055Zm0-3.741A1.056,1.056,0,0,1,71.633,72.7H51.426a1.055,1.055,0,0,1,0-2.11H71.633a1.056,1.056,0,0,1,1.055,1.055ZM53.343,7.649A1.054,1.054,0,0,1,54.4,6.594h.116a1.055,1.055,0,0,1,0,2.109H54.4a1.055,1.055,0,0,1-1.054-1.054Zm33.32,77.3V14.745a3.023,3.023,0,0,0-3.021-3.022H71v2.461H83.144A1.056,1.056,0,0,1,84.2,15.239V84.455a1.047,1.047,0,0,1-1.054,1.054h-.008L37.4,85.216a17.386,17.386,0,0,1-2.1,2.448l48.349.31h.017a2.946,2.946,0,0,0,2.092-.872,3.018,3.018,0,0,0,.9-2.15ZM17.234,89.069a14.905,14.905,0,0,0,6.149,1.322,15.037,15.037,0,0,0,2.49-29.866V75.709a1.038,1.038,0,0,1-.183.6L17.234,89.069ZM8.412,76.764h14.44l-7.485,11.3a15.049,15.049,0,0,1-6.955-11.3ZM23.383,60.316c.125,0,.249,0,.382.009v14.33H8.362A15.055,15.055,0,0,1,23.383,60.316ZM22.246,14.745a3.023,3.023,0,0,1,3.021-3.022H37.749v2.461H25.765a1.056,1.056,0,0,0-1.054,1.055V58.258c-.44-.034-.88-.051-1.328-.051-.382,0-.763.012-1.137.038v-43.5ZM39.865,9.774v9.608a.111.111,0,0,0,.108.107H68.779a.111.111,0,0,0,.108-.107V9.774a.11.11,0,0,0-.108-.107H61.268a1.055,1.055,0,0,1-1.012-.751,6.061,6.061,0,0,0-11.6,0,1.058,1.058,0,0,1-1.013.751H39.973a.11.11,0,0,0-.108.107ZM39.973,21.6a2.222,2.222,0,0,1-2.224-2.217V16.294H26.819V58.553A17.145,17.145,0,0,1,38.67,83.115l43.42.278v-67.1H71v3.088A2.221,2.221,0,0,1,68.779,21.6ZM83.642,9.614H70.986a2.221,2.221,0,0,0-2.207-2.057H62.007a8.167,8.167,0,0,0-15.1,0h-6.93a2.211,2.211,0,0,0-2.208,2.057h-12.5a5.134,5.134,0,0,0-5.129,5.131V58.514A17.146,17.146,0,1,0,32.67,89.756l50.964.327h.033a5.128,5.128,0,0,0,5.1-5.131V14.745A5.134,5.134,0,0,0,83.642,9.614Z"/><text x="0" y="110" fill="#000000" font-size="5px" font-weight="bold" font-family="'Helvetica Neue', Helvetica, Arial-Unicode, Arial, Sans-serif">Created by yulia astuti</text><text x="0" y="115" fill="#000000" font-size="5px" font-weight="bold" font-family="'Helvetica Neue', Helvetica, Arial-Unicode, Arial, Sans-serif">from the Noun Project</text></svg>