<svg xmlns:dc="http://purl.org/dc/elements/1.1/" xmlns:cc="http://creativecommons.org/ns#" xmlns:rdf="http://www.w3.org/1999/02/22-rdf-syntax-ns#" xmlns:svg="http://www.w3.org/2000/svg" xmlns="http://www.w3.org/2000/svg" xmlns:sodipodi="http://sodipodi.sourceforge.net/DTD/sodipodi-0.dtd" xmlns:inkscape="http://www.inkscape.org/namespaces/inkscape" version="1.1" x="0px" y="0px" viewBox="0 0 100 125"><g transform="translate(0,-952.36218)"><path style="font-size:medium;font-style:normal;font-variant:normal;font-weight:normal;font-stretch:normal;text-indent:0;text-align:start;text-decoration:none;line-height:normal;letter-spacing:normal;word-spacing:normal;text-transform:none;direction:ltr;block-progression:tb;writing-mode:lr-tb;text-anchor:start;baseline-shift:baseline;opacity:1;color:#000000;fill:#000000;fill-opacity:1;stroke:none;stroke-width:3.99999881000000010;marker:none;visibility:visible;display:inline;overflow:visible;enable-background:accumulate;font-family:Sans;-inkscape-font-specification:Sans" d="M 50 6 C 47.088279 6 44.257205 6.31205 41.53125 6.84375 A 2.0001994 2.0001994 0 0 0 39.96875 8.28125 L 37.84375 16.21875 C 33.77821 17.68278 30.076985 19.86197 26.84375 22.59375 L 18.90625 20.46875 A 2.0001994 2.0001994 0 0 0 16.875 21.09375 C 15.053454 23.18646 13.363133 25.47661 11.90625 28 C 10.451632 30.51948 9.2780917 33.12174 8.375 35.75 A 2.0001994 2.0001994 0 0 0 8.875 37.8125 L 14.65625 43.59375 C 14.277097 45.68602 14 47.799 14 50 C 14 52.201 14.277097 54.31405 14.65625 56.40625 L 8.875 62.1875 A 2.0001994 2.0001994 0 0 0 8.375 64.25 C 9.2780493 66.8783 10.451604 69.4805 11.90625 72 C 13.36313 74.5233 15.053358 76.81355 16.875 78.90625 A 2.0001994 2.0001994 0 0 0 18.90625 79.53125 L 26.84375 77.40625 C 30.076985 80.13805 33.77821 82.31725 37.84375 83.78125 L 39.96875 91.71875 A 2.0001994 2.0001994 0 0 0 41.53125 93.15625 C 44.257205 93.68795 47.088279 94 50 94 C 52.91172 94 55.742795 93.68795 58.46875 93.15625 A 2.0001994 2.0001994 0 0 0 60.03125 91.71875 L 62.15625 83.78125 C 66.22179 82.31725 69.923015 80.13805 73.15625 77.40625 L 81.09375 79.53125 A 2.0001994 2.0001994 0 0 0 83.125 78.90625 C 84.946642 76.81355 86.63687 74.5233 88.09375 72 C 89.548396 69.4805 90.721951 66.8783 91.625 64.25 A 2.0001994 2.0001994 0 0 0 91.125 62.1875 L 85.53125 56.5625 A 2.0108349 2.0108349 0 1 0 82.6875 59.40625 L 87.34375 64.03125 C 86.585065 66.06175 85.766032 68.0778 84.65625 70 C 83.550876 71.9145 82.222534 73.6425 80.84375 75.3125 L 73.3125 73.28125 A 2.0001994 2.0001994 0 0 0 71.4375 73.75 C 68.124825 76.7415 64.1835 79.0352 59.84375 80.4375 A 2.0001994 2.0001994 0 0 0 58.53125 81.8125 L 56.5 89.34375 C 54.3692 89.69995 52.206664 90 50 90 C 47.793335 90 45.630799 89.69995 43.5 89.34375 L 41.46875 81.8125 A 2.0001994 2.0001994 0 0 0 40.15625 80.4375 C 35.8165 79.0352 31.875175 76.7415 28.5625 73.75 A 2.0001994 2.0001994 0 0 0 26.6875 73.28125 L 19.15625 75.3125 C 17.777466 73.6425 16.449124 71.9145 15.34375 70 C 14.233968 68.0778 13.414935 66.06175 12.65625 64.03125 L 18.15625 58.53125 A 2.0001994 2.0001994 0 0 0 18.71875 56.71875 C 18.256454 54.55345 18 52.3057 18 50 C 18 47.6943 18.256454 45.44659 18.71875 43.28125 A 2.0001994 2.0001994 0 0 0 18.15625 41.46875 L 12.65625 35.96875 C 13.414972 33.93827 14.233988 31.92217 15.34375 30 C 16.44908 28.08551 17.77744 26.35753 19.15625 24.6875 L 26.6875 26.71875 A 2.0001994 2.0001994 0 0 0 28.5625 26.25 C 31.875175 23.2585 35.8165 20.96474 40.15625 19.5625 A 2.0001994 2.0001994 0 0 0 41.46875 18.1875 L 43.5 10.65625 C 45.630799 10.30005 47.793335 10 50 10 C 52.206664 10 54.3692 10.30005 56.5 10.65625 L 58.53125 18.1875 A 2.0001994 2.0001994 0 0 0 59.84375 19.5625 C 64.1835 20.96474 68.124825 23.2585 71.4375 26.25 A 2.0001994 2.0001994 0 0 0 73.3125 26.71875 L 80.84375 24.6875 C 82.22256 26.35753 83.55092 28.08551 84.65625 30 C 85.766012 31.92217 86.585028 33.93827 87.34375 35.96875 L 81.84375 41.46875 A 2.0001994 2.0001994 0 0 0 81.28125 43.28125 C 81.743546 45.44659 82 47.6943 82 50 A 2.0001994 2.0001994 0 1 0 86 50 C 86 47.799 85.722903 45.68602 85.34375 43.59375 L 91.125 37.8125 A 2.0001994 2.0001994 0 0 0 91.625 35.75 C 90.721908 33.12174 89.548368 30.51948 88.09375 28 C 86.636867 25.47661 84.946546 23.18646 83.125 21.09375 A 2.0001994 2.0001994 0 0 0 81.09375 20.46875 L 73.15625 22.59375 C 69.923015 19.86197 66.22179 17.68278 62.15625 16.21875 L 60.03125 8.28125 A 2.0001994 2.0001994 0 0 0 58.46875 6.84375 C 55.742795 6.31205 52.91172 6 50 6 z M 50 29 C 38.42571 29 29 38.42569 29 50 C 29 61.5743 38.42571 71 50 71 C 61.57429 71 71 61.5743 71 50 C 71 38.42569 61.57429 29 50 29 z M 50 33 C 59.412531 33 67 40.58745 67 50 C 67 59.4125 59.412531 67 50 67 C 40.587469 67 33 59.4125 33 50 C 33 40.58745 40.587469 33 50 33 z " transform="translate(0,952.36218)"/></g><text x="0" y="115" fill="#000000" font-size="5px" font-weight="bold" font-family="'Helvetica Neue', Helvetica, Arial-Unicode, Arial, Sans-serif">Created by artworkbean</text><text x="0" y="120" fill="#000000" font-size="5px" font-weight="bold" font-family="'Helvetica Neue', Helvetica, Arial-Unicode, Arial, Sans-serif">from the Noun Project</text></svg>