<svg xmlns="http://www.w3.org/2000/svg" xmlns:xlink="http://www.w3.org/1999/xlink" xml:space="preserve" version="1.1" style="shape-rendering:geometricPrecision;text-rendering:geometricPrecision;image-rendering:optimizeQuality;" viewBox="0 0 333.33 416.66249999999997" x="0px" y="0px" fill-rule="evenodd" clip-rule="evenodd"><defs><style type="text/css">
   
    .fil0 {fill:black;fill-rule:nonzero}
   
  </style></defs><g><path class="fil0" d="M85.18 3.33l162.97 0c14.17,0 27.04,5.79 36.36,15.11 9.33,9.32 15.11,22.2 15.11,36.36l0 223.72c0,14.16 -5.79,27.04 -15.11,36.36 -9.32,9.32 -22.19,15.11 -36.36,15.11l-162.97 0c-14.16,0 -27.03,-5.79 -36.35,-15.11 -9.33,-9.32 -15.11,-22.2 -15.11,-36.36l0 -223.72c0,-14.16 5.79,-27.04 15.11,-36.36 9.32,-9.32 22.19,-15.11 36.35,-15.11zm7.16 264.32c-4.23,0 -7.66,-3.43 -7.66,-7.66 0,-4.23 3.43,-7.65 7.66,-7.65l61.35 0c4.23,0 7.66,3.43 7.66,7.65 0,4.23 -3.43,7.66 -7.66,7.66l-61.35 0zm123.5 0c-4.23,0 -7.66,-3.43 -7.66,-7.66 0,-4.23 3.43,-7.65 7.66,-7.65l25.16 0c4.23,0 7.66,3.43 7.66,7.65 0,4.23 -3.43,7.66 -7.66,7.66l-25.16 0zm-123.5 -52.08c-4.23,0 -7.66,-3.43 -7.66,-7.66 0,-4.23 3.43,-7.65 7.66,-7.65l29.4 0c4.23,0 7.65,3.43 7.65,7.65 0,4.23 -3.43,7.66 -7.65,7.66l-29.4 0zm67.39 0c-4.23,0 -7.66,-3.43 -7.66,-7.66 0,-4.23 3.43,-7.65 7.66,-7.65l81.27 0c4.23,0 7.66,3.43 7.66,7.65 0,4.23 -3.43,7.66 -7.66,7.66l-81.27 0zm-67.39 -52.08c-4.23,0 -7.66,-3.43 -7.66,-7.66 0,-4.23 3.43,-7.66 7.66,-7.66l148.66 0c4.23,0 7.66,3.43 7.66,7.66 0,4.23 -3.43,7.66 -7.66,7.66l-148.66 0zm18.17 -45.96c-2.85,3.09 -7.68,3.28 -10.76,0.42 -3.09,-2.86 -3.28,-7.68 -0.42,-10.77l28.89 -31.21c2.86,-3.09 7.68,-3.28 10.77,-0.42 0.33,0.3 0.62,0.63 0.88,0.97l0.02 -0.01 17.47 22.76 39.86 -36.66c3.1,-2.85 7.94,-2.65 10.8,0.45 0.19,0.21 0.37,0.43 0.54,0.65l25.8 31.77c2.66,3.27 2.16,8.08 -1.11,10.74 -3.27,2.66 -8.08,2.17 -10.74,-1.11l-20.92 -25.76 -40.02 36.81c-0.17,0.15 -0.35,0.31 -0.54,0.45 -3.35,2.56 -8.15,1.92 -10.7,-1.44l-17.06 -22.22 -22.74 24.57zm137.65 -98.88l-162.97 0c-9.93,0 -18.97,4.07 -25.53,10.63 -6.56,6.56 -10.63,15.59 -10.63,25.53l0 223.72c0,9.94 4.07,18.98 10.63,25.53 6.56,6.56 15.6,10.63 25.53,10.63l162.97 0c9.94,0 18.98,-4.07 25.53,-10.63 6.56,-6.56 10.63,-15.59 10.63,-25.53l0 -223.72c0,-9.94 -4.07,-18.98 -10.63,-25.53 -6.56,-6.56 -15.59,-10.63 -25.53,-10.63z"/></g><text x="0" y="348.33" fill="#000000" font-size="5px" font-weight="bold" font-family="'Helvetica Neue', Helvetica, Arial-Unicode, Arial, Sans-serif">Created by ARISO</text><text x="0" y="353.33" fill="#000000" font-size="5px" font-weight="bold" font-family="'Helvetica Neue', Helvetica, Arial-Unicode, Arial, Sans-serif">from the Noun Project</text></svg>